<svg version="1.1" id="Layer_1" xmlns="http://www.w3.org/2000/svg" xmlns:xlink="http://www.w3.org/1999/xlink" x="0px" y="0px"
	 width="100%" viewBox="0 0 1024 1024" enable-background="new 0 0 1024 1024" xml:space="preserve">
<path fill="#000000" opacity="1.000000" stroke="none" 
	d="
M442.681213,243.973572 
	C442.681519,231.147339 443.078613,218.800003 442.575714,206.489410 
	C442.021942,192.933838 448.960724,190.945053 457.786285,189.979202 
	C465.026672,189.186829 465.045013,189.354065 465.783905,182.131577 
	C466.714630,173.033905 471.725830,168.627563 480.958160,168.623795 
	C502.952911,168.614807 524.947754,168.581223 546.942322,168.497238 
	C555.203674,168.465683 561.743958,174.063049 561.902100,182.587967 
	C562.004700,188.118469 563.521484,190.377701 569.316162,190.151199 
	C578.654785,189.786148 584.940796,195.874191 584.495972,206.231018 
	C583.874512,220.701691 583.851318,235.241989 584.525391,249.708084 
	C584.937439,258.549805 577.088623,265.521332 569.313293,265.254578 
	C560.304199,264.945557 561.373474,265.641907 561.324463,273.602173 
	C561.294739,278.434479 561.315125,283.267059 561.306702,288.099518 
	C561.298340,292.900635 559.252319,296.210297 554.720093,298.253632 
	C545.614380,302.358887 536.698853,306.888062 527.573120,310.946167 
	C523.716492,312.661194 521.909973,314.921448 522.205139,319.303284 
	C522.562744,324.611481 522.623840,329.989807 522.190308,335.286804 
	C521.772034,340.398773 524.085144,343.441345 528.150330,345.803375 
	C548.744080,357.769226 569.318542,369.768280 589.905579,381.745636 
	C594.224121,384.258087 598.595215,386.680969 602.892700,389.228485 
	C610.548401,393.766724 614.356201,400.380798 614.321594,409.430664 
	C614.212463,437.925171 614.191589,466.420990 614.361511,494.914978 
	C614.420105,504.740234 610.396790,511.737000 601.918884,516.590332 
	C576.911682,530.906128 551.879883,545.184814 527.079224,559.852539 
	C518.099060,565.163696 509.801239,565.444214 500.794495,560.240601 
	C475.847931,545.827759 450.779602,531.625061 425.724670,517.400513 
	C416.438660,512.128479 412.354431,504.570221 412.516357,493.623993 
	C412.964905,463.302673 412.655060,432.970428 412.696442,402.642578 
	C412.703461,397.492889 415.998718,393.859253 420.301605,393.922974 
	C424.513611,393.985352 428.059875,397.815582 428.293854,402.573639 
	C428.334717,403.405090 428.318451,404.239685 428.318420,405.072815 
	C428.317383,433.234344 428.527466,461.398560 428.171204,489.555603 
	C428.076172,497.067657 431.022308,501.950714 437.125092,505.459229 
	C454.739868,515.585999 472.376373,525.674988 490.014709,535.760681 
	C495.797363,539.067261 501.674774,542.212891 507.391693,545.628235 
	C511.923798,548.335693 516.186279,547.964905 520.579285,545.401672 
	C543.884094,531.803772 567.190125,518.207764 590.543396,504.693542 
	C596.277771,501.375153 598.852173,496.869110 598.773560,490.016571 
	C598.490723,465.357605 598.558960,440.692505 598.742737,416.031525 
	C598.800293,408.308136 596.201782,402.828278 589.250000,398.832397 
	C565.282227,385.055725 541.610901,370.763275 517.642151,356.988403 
	C510.514343,352.892090 506.832306,347.789795 507.546661,339.286682 
	C508.130554,332.336670 507.548157,325.295837 507.732300,318.301849 
	C507.814209,315.190735 506.681030,313.556580 503.842224,312.213196 
	C494.060333,307.584290 484.578278,302.298492 474.686218,297.933167 
	C466.959686,294.523499 464.766052,288.793121 465.348602,281.102783 
	C465.574615,278.118866 465.622650,275.115448 465.615875,272.121216 
	C465.600983,265.522705 465.419708,265.266754 458.935120,265.328400 
	C455.657562,265.359528 452.708191,264.535736 449.811096,263.153381 
	C445.290680,260.996460 443.177032,257.220947 442.734802,252.460297 
	C442.489258,249.817581 442.684631,247.133881 442.681213,243.973572 
M529.500000,205.216583 
	C507.532471,205.220535 485.564911,205.203186 463.597443,205.242096 
	C457.435303,205.253006 457.215668,205.553055 457.227905,211.820023 
	C457.238312,217.145447 457.407654,222.476166 457.220673,227.794479 
	C457.089691,231.520737 458.638824,232.731491 462.240143,232.723450 
	C496.522705,232.646805 530.805542,232.652512 565.088135,232.717285 
	C568.900696,232.724487 570.633301,231.073746 570.633179,227.373459 
	C570.633057,222.048248 570.536377,216.720779 570.662354,211.398544 
	C570.765930,207.021896 569.038147,205.090958 564.448669,205.169861 
	C553.135498,205.364349 541.816589,205.224319 529.500000,205.216583 
M494.165192,291.377686 
	C498.539276,294.224457 502.741302,293.866180 507.260956,291.350372 
	C511.312805,289.094971 515.747864,287.531891 519.998291,285.628448 
	C528.185059,281.962158 536.327820,278.195282 544.557800,274.629120 
	C547.693604,273.270294 547.981323,270.891541 547.634155,268.079163 
	C547.243835,264.915802 544.734436,265.319550 542.656128,265.315521 
	C523.350769,265.278137 504.044617,265.379486 484.740143,265.238403 
	C480.522858,265.207581 479.646759,266.999939 479.201019,270.879791 
	C478.188110,279.696198 480.233490,286.201660 489.596649,288.834259 
	C490.993652,289.227051 492.205353,290.278992 494.165192,291.377686 
M488.661377,182.325272 
	C487.161469,182.331116 485.660400,182.377884 484.161926,182.334305 
	C480.987793,182.242020 479.552429,184.052170 479.453217,186.927414 
	C479.336060,190.323303 482.055115,189.816849 484.109680,189.838974 
	C491.274994,189.916138 498.441559,189.884613 505.607635,189.883423 
	C517.773438,189.881424 529.939270,189.875687 542.105103,189.860794 
	C544.926758,189.857346 547.696472,189.648865 547.580261,185.784424 
	C547.467896,182.046799 544.583984,182.350418 542.114807,182.345505 
	C524.615845,182.310715 507.116699,182.325729 488.661377,182.325272 
z"/>
<path fill="#000000" opacity="1.000000" stroke="none" 
	d="
M691.679199,595.664551 
	C708.613892,584.816223 718.597961,569.676941 722.143188,550.319336 
	C723.099731,545.096863 723.670471,539.796997 723.667542,534.449036 
	C723.642151,487.620819 723.667664,440.792603 723.645874,393.964386 
	C723.630371,360.529022 709.158142,334.911224 680.937866,317.422028 
	C656.589417,302.332367 631.738586,288.053711 607.120850,273.398010 
	C605.551147,272.463562 603.952637,271.511719 602.582520,270.320679 
	C599.242554,267.417328 598.724670,263.436981 601.331848,260.096924 
	C603.931763,256.766266 606.994202,255.998062 610.922974,258.341553 
	C628.089661,268.581238 645.393066,278.591736 662.554871,288.839417 
	C674.133423,295.753204 686.173096,301.910614 697.129211,309.854095 
	C719.636414,326.172546 733.981812,347.782043 737.945374,375.410858 
	C740.480103,393.079407 738.989929,411.011780 739.090820,428.823822 
	C739.297607,465.317749 739.475647,501.815765 739.151184,538.307556 
	C738.867615,570.200745 725.788391,595.355713 697.532288,611.314331 
	C653.734680,636.050598 609.751892,660.459534 565.799988,684.921570 
	C549.836487,693.806335 532.654907,698.875671 514.376038,699.207458 
	C493.121460,699.593201 474.001160,692.258911 455.720367,681.985046 
	C415.351746,659.297607 374.904999,636.748047 334.395325,614.313416 
	C309.566833,600.563232 294.792328,579.799255 290.044342,551.920227 
	C289.155823,546.702942 288.772430,541.339539 288.761505,536.042297 
	C288.665283,489.380951 288.993225,442.717041 288.621307,396.058441 
	C288.285828,353.968719 306.776184,323.010406 342.532288,301.801117 
	C365.596771,288.120026 388.760712,274.606506 411.888580,261.032379 
	C413.611633,260.021088 415.378357,259.076447 417.167938,258.187744 
	C421.195831,256.187469 424.852020,257.112823 427.011505,260.719849 
	C429.329193,264.591095 428.229736,267.973969 424.766754,270.275940 
	C418.390594,274.514435 411.829102,278.482025 405.259949,282.420929 
	C385.833069,294.069397 366.177216,305.348297 346.964111,317.337646 
	C326.835693,329.898224 312.803070,347.328217 307.108887,370.824493 
	C305.255402,378.472687 304.443329,386.260254 304.424103,394.076447 
	C304.312592,439.404388 304.419464,484.732880 304.312408,530.060852 
	C304.236572,562.169983 317.231720,586.275269 345.987793,601.892700 
	C387.846466,624.626221 428.805237,648.991455 470.898041,671.314514 
	C485.006897,678.796814 500.184937,682.912720 515.973450,682.370300 
	C530.676453,681.865295 544.758667,677.324951 557.895874,670.419678 
	C587.831848,654.684387 617.163818,637.853088 646.667969,621.336914 
	C661.634155,612.959106 676.874084,605.052917 691.679199,595.664551 
z"/>
<path fill="#000000" opacity="1.000000" stroke="none" 
	d="
M449.778290,290.763000 
	C421.398682,307.625763 393.402069,324.418365 365.196716,340.852783 
	C344.856018,352.704681 335.240204,370.246277 335.294189,393.591461 
	C335.395142,437.250214 335.491211,480.910339 335.245789,524.567932 
	C335.122681,546.461548 344.144470,562.452759 363.316650,573.191162 
	C399.064301,593.213562 434.677979,613.477783 470.214020,633.873840 
	C481.854767,640.555054 493.604309,646.371399 507.205353,647.984863 
	C520.395691,649.549683 532.780273,646.985535 544.506287,641.447510 
	C561.841614,633.260376 577.906982,622.726868 594.544617,613.252075 
	C619.292725,599.158508 643.831726,584.698242 668.488159,570.443115 
	C684.943359,560.929504 692.399841,545.994263 692.560974,527.726685 
	C692.956299,482.904846 692.831177,438.076080 692.582336,393.251953 
	C692.460266,371.265869 682.941345,354.083252 663.959717,342.684021 
	C637.685852,326.905579 611.250488,311.395996 584.887573,295.765808 
	C582.595703,294.406952 580.230103,293.143951 578.070862,291.596344 
	C574.420471,288.979950 573.516357,284.611084 575.896484,281.109589 
	C578.386475,277.446472 581.790344,276.959625 585.489563,279.096222 
	C597.458801,286.009460 609.376038,293.012665 621.318970,299.971558 
	C638.299927,309.865967 655.284119,319.754791 672.270142,329.640564 
	C696.639038,343.823212 708.287903,365.242249 708.309204,393.201447 
	C708.343872,438.693390 708.397888,484.185608 708.277222,529.677307 
	C708.212341,554.151184 697.981079,572.657776 676.220215,584.893005 
	C635.863831,607.583801 595.843323,630.871155 555.542908,653.662415 
	C528.279358,669.080994 500.598663,669.283691 473.238922,653.965698 
	C432.546082,631.182922 392.052063,608.045166 351.459137,585.083801 
	C330.169891,573.041626 320.064148,554.221313 319.848450,530.370789 
	C319.426605,483.716125 319.482788,437.053528 319.793884,390.397247 
	C319.968964,364.141602 330.956207,343.522064 354.001801,329.959381 
	C381.706146,313.654968 409.396606,297.327026 437.104065,281.027863 
	C438.679626,280.101013 440.316284,279.256317 441.989655,278.521667 
	C445.944977,276.785278 449.193817,277.840759 451.521515,281.386902 
	C453.757782,284.793701 453.587982,287.969543 449.778290,290.763000 
z"/>
<path fill="#000000" opacity="1.000000" stroke="none" 
	d="
M520.526978,526.634216 
	C515.583496,530.731628 511.294678,530.092773 506.195221,527.015564 
	C487.381165,515.662537 468.338135,504.686493 449.301331,493.707245 
	C445.417877,491.467560 443.617981,488.600464 443.642944,484.055023 
	C443.765564,461.737701 443.754150,439.419098 443.644653,417.101624 
	C443.624329,412.956146 445.208038,410.143860 448.723450,408.124023 
	C468.785431,396.597137 488.842407,385.061218 508.850525,373.441315 
	C512.091736,371.558929 514.874390,371.614380 518.144287,373.524445 
	C537.692139,384.943176 557.300720,396.259125 576.963196,407.479553 
	C581.360413,409.988831 583.245850,413.408752 583.220215,418.450256 
	C583.111023,439.934723 583.072754,461.421417 583.291443,482.904419 
	C583.344360,488.102875 581.235779,491.292145 576.944580,493.771362 
	C558.206970,504.596893 539.535400,515.536804 520.526978,526.634216 
z"/>
<path fill="#000000" opacity="1.000000" stroke="none" 
	d="
M350.712830,428.999939 
	C351.182343,414.698639 349.625488,400.838837 351.688080,387.089355 
	C353.955750,371.972412 361.789307,360.584229 375.031158,352.870178 
	C398.634186,339.120270 422.194672,325.297333 445.783295,311.522644 
	C447.505798,310.516785 449.272186,309.566803 451.086761,308.741669 
	C455.584656,306.696411 459.644348,307.724792 461.536987,311.293365 
	C463.490417,314.976532 461.869659,319.231781 457.651672,321.724884 
	C433.704224,335.879639 409.793091,350.096161 385.816315,364.201050 
	C373.430664,371.487183 367.038025,381.877869 367.124420,396.550110 
	C367.364777,437.377930 367.285492,478.207825 367.262207,519.036865 
	C367.255249,531.263000 372.374634,540.791565 382.762115,546.888062 
	C406.459412,560.796082 430.397552,574.293945 454.249542,587.938049 
	C465.527344,594.389343 476.912292,600.657410 488.105896,607.250854 
	C505.541534,617.521118 523.158386,617.154968 540.343140,607.422241 
	C574.113037,588.296387 607.467346,568.436523 641.244019,549.323059 
	C654.864502,541.615540 661.057434,530.838928 660.886841,515.147583 
	C660.462952,476.156464 660.705139,437.157623 660.760742,398.161987 
	C660.781677,383.460968 655.044373,372.121948 642.157166,364.578888 
	C618.723572,350.862946 595.344849,337.053375 571.946411,323.277435 
	C570.799805,322.602325 569.615601,321.964020 568.565247,321.157227 
	C564.611389,318.120148 563.740540,314.736450 565.922729,311.228760 
	C568.145508,307.655823 572.276123,306.566223 576.426941,308.873535 
	C584.725464,313.486450 592.910217,318.304199 601.137390,323.045319 
	C618.455933,333.025787 635.828857,342.913666 653.071228,353.024017 
	C668.261780,361.931213 676.132874,375.483337 676.230469,392.975433 
	C676.474121,436.636566 676.414551,480.300201 676.276184,523.962158 
	C676.228821,538.914917 669.686707,550.815552 656.846924,558.433167 
	C633.785522,572.115173 610.412598,585.272034 587.162476,598.635559 
	C572.146484,607.266418 557.604004,616.744446 542.107422,624.509766 
	C522.412476,634.379089 502.612183,633.189941 483.719971,622.720520 
	C446.860779,602.294495 410.390198,581.168518 373.633423,560.555664 
	C357.225311,551.354248 351.013489,536.677185 350.817169,518.988342 
	C350.486145,489.162140 350.717865,459.329742 350.712830,428.999939 
z"/>
<path fill="#000000" opacity="1.000000" stroke="none" 
	d="
M622.381531,368.576782 
	C623.588379,369.219208 624.441528,369.750885 625.347107,370.168976 
	C639.550171,376.726807 645.407043,387.783081 645.163269,403.407410 
	C644.671814,434.898529 645.076111,466.403076 645.009155,497.901825 
	C644.996460,503.884338 645.222900,509.857452 644.570984,515.865356 
	C643.608276,524.736145 639.253235,531.317200 631.829651,535.651672 
	C599.031250,554.802246 566.222839,573.941223 533.189270,592.681030 
	C519.736084,600.313049 505.782043,598.804871 492.630890,591.505798 
	C472.532288,580.350647 452.697906,568.719727 432.739594,557.311340 
	C420.880493,550.532410 408.950226,543.876648 397.142242,537.010193 
	C386.839142,531.018860 381.491211,522.348999 381.580231,509.986969 
	C381.845459,473.156647 381.807159,436.322296 381.585541,399.491333 
	C381.514404,387.672211 386.937988,379.458496 396.603668,373.701508 
	C424.371277,357.162933 452.229553,340.776520 480.061401,324.345856 
	C485.317078,321.243164 489.808807,321.875153 492.254425,325.973846 
	C494.694733,330.063599 493.240540,334.312439 487.892456,337.497162 
	C462.129730,352.838531 436.412811,368.261383 410.466003,383.286438 
	C401.343567,388.568970 396.945526,395.303528 397.114075,406.261688 
	C397.621490,439.253204 397.393982,472.257965 397.235931,505.256500 
	C397.193451,514.128296 400.559906,520.613708 408.261108,525.017822 
	C438.627502,542.383545 468.905182,559.905334 499.336700,577.155823 
	C509.375519,582.846497 519.693481,582.547363 529.711487,576.651794 
	C558.993591,559.419250 588.282349,542.198914 617.943970,525.622131 
	C625.920959,521.164124 629.746765,514.419800 629.712036,505.159302 
	C629.587036,471.827118 629.519775,438.493256 629.743225,405.162140 
	C629.808716,395.387970 626.394592,388.386322 617.771851,383.356842 
	C593.452759,369.172028 569.353394,354.610626 545.168823,340.195251 
	C543.451477,339.171600 541.708252,338.185120 540.041504,337.083832 
	C535.650879,334.182800 534.490845,330.286102 536.830017,326.519928 
	C539.245239,322.631409 543.045349,321.789642 547.599487,324.468842 
	C571.002319,338.237061 594.363831,352.075592 617.740540,365.888306 
	C619.174438,366.735565 620.614807,367.571777 622.381531,368.576782 
z"/>
</svg>